<svg data-v-fde0c5aa="" xmlns="http://www.w3.org/2000/svg" viewBox="0 0 300 300" class="iconAbove"><!----><defs data-v-fde0c5aa=""><!----></defs><rect data-v-fde0c5aa="" fill="#002C73" x="0" y="0" width="300px" height="300px" class="logo-background-square"></rect><defs data-v-fde0c5aa=""><!----></defs><g data-v-fde0c5aa="" id="2e09fb5c-f42c-46c3-8fd1-c5448a83b99d" fill="#ffffff" transform="matrix(3.8670041041938026,0,0,3.8670041041938026,12.674027039748266,186.6527380733676)"><path d="M11.80 10.64L11.80 10.64Q11.80 10.67 11.79 10.73Q11.77 10.79 11.72 10.86Q11.68 10.92 11.58 10.97Q11.48 11.02 11.31 11.02L11.31 11.02Q11.17 11.02 11.03 10.99Q10.88 10.96 10.68 10.91L10.68 10.91Q10.61 10.88 10.58 10.84L10.58 10.84Q10.49 10.72 10.40 10.56Q10.32 10.39 10.22 10.16L10.22 10.16Q9.79 9.13 9.35 7.28L9.35 7.28Q8.89 7.35 8.38 7.36Q7.87 7.38 7.29 7.41L7.29 7.41Q6.72 7.43 6.35 7.46Q5.98 7.49 5.80 7.50L5.80 7.50Q5.47 8.04 5.20 8.58Q4.93 9.13 4.59 9.67L4.59 9.67Q4.59 9.69 4.58 9.69L4.58 9.69Q4.05 10.49 3.49 10.92L3.49 10.92Q3.21 11.13 2.83 11.22Q2.46 11.31 2.11 11.03L2.11 11.03Q1.86 10.84 1.90 10.71Q1.93 10.58 2.14 10.46Q2.34 10.33 2.63 10.16Q2.93 9.98 3.21 9.67L3.21 9.67Q3.50 9.34 3.86 8.77Q4.21 8.20 4.56 7.63L4.56 7.63L4.28 7.63Q4.03 7.63 3.89 7.55L3.89 7.55Q3.70 7.43 3.70 7.21L3.70 7.21Q3.70 7.18 3.72 7.12Q3.74 7.06 3.82 7L3.82 7Q3.86 6.99 3.95 6.96L3.95 6.96Q4.09 6.92 4.30 6.87L4.30 6.87Q4.40 6.86 4.46 6.84Q4.52 6.82 4.58 6.80Q4.65 6.78 4.75 6.75Q4.86 6.73 5.07 6.71L5.07 6.71Q5.47 6.02 5.94 5.03Q6.41 4.05 6.90 2.77L6.90 2.77Q7.14 2.17 7.34 1.69Q7.55 1.22 7.66 0.85L7.66 0.85Q7.81 0.41 7.85 0.22Q7.90 0.03 7.90-0.04L7.90-0.04Q7.90-0.06 7.89-0.06Q7.88-0.07 7.88-0.08L7.88-0.08Q7.83-0.18 7.83-0.28L7.83-0.28Q7.83-0.53 8.08-0.62L8.08-0.62Q8.20-0.69 8.53-0.69L8.53-0.69Q8.79-0.69 9.28-0.36L9.28-0.36Q9.56-0.17 9.68-0.04Q9.80 0.08 9.80 0.21L9.80 0.21Q9.80 0.52 9.76 0.73L9.76 0.73Q9.74 0.80 9.74 0.84Q9.73 0.88 9.73 0.91L9.73 0.91L9.73 0.97Q9.73 2.07 9.90 3.43Q10.07 4.79 10.42 6.40L10.42 6.40Q10.68 7.69 10.93 8.62Q11.17 9.56 11.40 10.15L11.40 10.15Q11.44 10.26 11.52 10.33L11.52 10.33Q11.70 10.46 11.76 10.53L11.76 10.53Q11.80 10.57 11.80 10.64ZM6.27 6.58L9.18 6.51Q9.16 6.37 9.11 6.10Q9.07 5.82 9.00 5.38L9.00 5.38Q8.54 2.62 8.46 1.71L8.46 1.71L8.46 1.69Q8.46 1.60 8.45 1.50Q8.44 1.41 8.43 1.32L8.43 1.32Q8.27 1.68 8.04 2.28Q7.80 2.88 7.48 3.74L7.48 3.74Q7.13 4.69 6.83 5.39Q6.52 6.09 6.27 6.58L6.27 6.58ZM16.21 5.60L16.21 5.60Q16.27 5.60 16.40 5.66Q16.53 5.73 16.53 6.02L16.53 6.02Q16.53 6.48 15.99 8.12L15.99 8.12Q15.64 9.20 15.33 9.80L15.33 9.80Q14.99 10.44 14.64 10.44L14.64 10.44Q13.90 10.44 13.69 9.21L13.69 9.21Q13.65 9.02 13.62 8.68Q13.58 8.34 13.55 7.85L13.55 7.85Q13.47 8.20 13.36 8.63Q13.24 9.06 13.10 9.58L13.10 9.58Q13.08 9.65 13.03 9.78Q12.99 9.91 12.92 10.04Q12.85 10.18 12.73 10.28Q12.61 10.37 12.45 10.37L12.45 10.37Q12.36 10.37 12.24 10.35Q12.12 10.32 12.01 10.23Q11.90 10.15 11.81 10.00Q11.72 9.84 11.68 9.58L11.68 9.58L11.68 9.56Q11.66 9.28 11.65 8.99Q11.63 8.71 11.62 8.43L11.62 8.43Q11.58 7.81 11.62 7.21L11.62 7.21Q11.63 6.99 11.64 6.87Q11.65 6.76 11.66 6.71L11.66 6.71L11.55 6.47Q11.52 6.41 11.52 6.37L11.52 6.37Q11.55 6.06 11.57 5.94Q11.59 5.82 11.62 5.77L11.62 5.77Q11.75 5.40 12.18 5.40L12.18 5.40Q12.42 5.40 12.54 5.53Q12.67 5.66 12.67 5.87L12.67 5.87Q12.67 5.89 12.66 5.96Q12.64 6.02 12.57 6.27L12.57 6.27Q12.53 6.41 12.50 6.52Q12.47 6.64 12.47 6.75L12.47 6.75Q12.47 6.90 12.47 7.13Q12.47 7.35 12.46 7.63L12.46 7.63Q12.46 7.91 12.45 8.09Q12.45 8.27 12.45 8.36L12.45 8.36Q12.45 8.83 12.49 9.02L12.49 9.02L12.49 9.00Q12.60 8.60 12.67 8.32Q12.74 8.04 12.81 7.85L12.81 7.85Q13.23 6.55 13.31 5.57L13.31 5.57Q13.36 4.83 13.61 4.68L13.61 4.68Q13.66 4.63 13.73 4.63L13.73 4.63Q14.32 4.68 14.50 4.89Q14.69 5.11 14.69 5.32L14.69 5.32L14.69 5.36Q14.67 5.39 14.64 5.59Q14.62 5.78 14.52 6.36L14.52 6.36Q14.45 6.86 14.41 7.29Q14.36 7.71 14.36 8.08L14.36 8.08Q14.36 8.54 14.39 8.82Q14.42 9.10 14.46 9.25Q14.50 9.39 14.54 9.44Q14.57 9.49 14.59 9.49L14.59 9.49Q14.60 9.48 14.65 9.43Q14.70 9.38 14.78 9.23Q14.87 9.07 14.99 8.79Q15.12 8.51 15.27 8.05L15.27 8.05Q15.43 7.56 15.55 7.10Q15.68 6.64 15.78 6.22L15.78 6.22Q15.83 5.98 15.93 5.79Q16.02 5.60 16.21 5.60ZM20.29 5.49L20.29 5.49Q20.34 5.49 20.34 5.56Q20.33 5.63 20.33 5.92L20.33 5.92Q20.33 6.44 19.73 8.26L19.73 8.26Q19.49 8.96 19.31 9.38Q19.12 9.80 18.98 10.02Q18.83 10.23 18.71 10.30Q18.59 10.37 18.49 10.37L18.49 10.37Q17.81 10.37 17.57 9.38L17.57 9.38Q17.32 9.93 17.15 10.14L17.15 10.14Q16.87 10.54 16.49 10.54L16.49 10.54Q16.32 10.54 16.09 10.44Q15.86 10.33 15.67 10.00L15.67 10.00Q15.37 9.52 15.37 8.76L15.37 8.76Q15.37 8.15 15.47 7.53Q15.57 6.90 15.81 6.12L15.81 6.12Q16.37 4.28 17.15 4.28L17.15 4.28Q17.43 4.28 17.74 4.55L17.74 4.55Q17.77 4.56 17.77 4.58Q17.78 4.59 17.81 4.61L17.81 4.61Q17.89 3.89 18.02 2.82Q18.16 1.75 18.34 0.45L18.34 0.45Q18.33 0.34 18.35 0.11Q18.37-0.11 18.56-0.20L18.56-0.20L18.61-0.21L18.93-0.21Q19.11-0.21 19.20-0.13Q19.29-0.06 19.36 0.07L19.36 0.07Q19.46 0.22 19.43 0.55L19.43 0.55L19.42 0.56Q19.29 1.22 19.16 1.90Q19.03 2.58 18.87 3.37L18.87 3.37Q18.86 3.49 18.77 4.18Q18.68 4.87 18.51 6.17L18.51 6.17Q18.26 8.09 18.26 8.65L18.26 8.65Q18.27 9.10 18.32 9.29Q18.37 9.48 18.40 9.53L18.40 9.53Q18.47 9.46 18.60 9.18Q18.73 8.89 19.04 8.19L19.04 8.19Q19.28 7.64 19.50 7.07Q19.73 6.50 19.88 5.99L19.88 5.99Q19.89 5.94 19.92 5.85Q19.95 5.77 19.99 5.68Q20.03 5.60 20.10 5.54Q20.17 5.49 20.29 5.49ZM17.56 6.41L17.56 6.40Q17.58 6.16 17.60 6.06Q17.61 5.96 17.61 5.85L17.61 5.85Q17.61 5.50 17.52 5.44Q17.43 5.38 17.37 5.38L17.37 5.38Q17.36 5.38 17.31 5.38Q17.26 5.38 17.17 5.46Q17.08 5.54 16.96 5.75Q16.84 5.95 16.70 6.37L16.70 6.37Q16.31 7.50 16.31 8.46L16.31 8.46Q16.31 8.81 16.32 9.04Q16.34 9.27 16.36 9.41Q16.38 9.55 16.41 9.61Q16.44 9.67 16.46 9.70L16.46 9.70Q16.56 9.76 16.67 9.55Q16.79 9.34 17.01 8.72L17.01 8.72L17.02 8.72Q17.32 7.97 17.49 7.21L17.49 7.21Q17.50 7.08 17.51 6.89Q17.53 6.69 17.56 6.41L17.56 6.41ZM23.46 5.53L23.46 5.53Q23.52 5.53 23.65 5.59Q23.79 5.66 23.79 5.95L23.79 5.95Q23.79 6.44 23.20 8.29L23.20 8.29Q22.96 8.99 22.78 9.41Q22.60 9.83 22.45 10.05Q22.30 10.28 22.18 10.35Q22.06 10.42 21.97 10.42L21.97 10.42Q21.39 10.42 21.03 9.77L21.03 9.77Q20.97 9.70 20.92 9.49Q20.87 9.28 20.85 8.76L20.85 8.76L20.85 7.69L20.85 6.48Q20.85 6.45 20.79 6.35Q20.73 6.24 20.48 6.08L20.48 6.08Q20.40 6.52 20.15 7.39L20.15 7.39Q20.15 7.43 20.06 7.60L20.06 7.60Q20.03 7.66 20.02 7.69Q20.01 7.71 19.99 7.73L19.99 7.73Q19.99 7.78 19.92 7.83L19.92 7.83Q19.85 7.90 19.75 7.85L19.75 7.85L19.54 7.80Q19.39 7.74 19.39 7.60L19.39 7.60Q19.39 7.59 19.39 7.55Q19.39 7.52 19.41 7.43Q19.43 7.34 19.47 7.17Q19.52 7 19.60 6.71L19.60 6.71Q19.78 6.02 19.78 5.60L19.78 5.60Q19.78 5.57 19.77 5.47Q19.75 5.36 19.68 5.17L19.68 5.17Q19.54 4.83 19.54 4.56L19.54 4.56Q19.54 4.27 19.60 4.09Q19.66 3.91 19.74 3.80Q19.82 3.70 19.93 3.65Q20.03 3.61 20.13 3.61L20.13 3.61Q20.19 3.61 20.27 3.63Q20.36 3.65 20.43 3.72Q20.51 3.79 20.57 3.93Q20.64 4.06 20.65 4.27L20.65 4.27Q20.66 4.41 20.62 4.76L20.62 4.76Q20.59 4.96 20.59 5.05Q20.59 5.15 20.59 5.21L20.59 5.21Q20.61 5.24 20.71 5.31Q20.80 5.38 21.11 5.53L21.11 5.53Q21.87 5.89 21.87 6.47L21.87 6.47Q21.87 6.50 21.86 6.57Q21.85 6.65 21.85 6.80Q21.84 6.96 21.81 7.22Q21.78 7.49 21.74 7.91L21.74 7.91Q21.71 8.20 21.69 8.40Q21.67 8.60 21.66 8.72Q21.64 8.85 21.64 8.93Q21.63 9.02 21.63 9.10L21.63 9.10Q21.63 9.44 21.70 9.52Q21.77 9.60 21.84 9.60L21.84 9.60Q21.85 9.59 21.90 9.53Q21.95 9.46 22.03 9.30Q22.11 9.14 22.21 8.87Q22.32 8.60 22.47 8.16L22.47 8.16Q22.95 6.79 23.06 6.05L23.06 6.05Q23.10 5.73 23.23 5.63Q23.35 5.53 23.46 5.53ZM26.50 5.49L26.50 5.49Q26.68 5.49 26.67 5.59Q26.66 5.70 26.66 5.87L26.66 5.87Q26.66 5.89 26.65 5.96Q26.64 6.02 26.61 6.13Q26.59 6.24 26.54 6.44Q26.50 6.64 26.42 6.93L26.42 6.93Q26.15 8.01 25.84 8.83L25.84 8.83Q25.69 9.24 25.54 9.53Q25.40 9.81 25.26 10.01L25.26 10.01Q24.88 10.54 24.30 10.54L24.30 10.54Q23.66 10.54 23.20 9.87L23.20 9.87Q22.78 9.24 22.78 8.34L22.78 8.34Q22.78 7.62 22.88 6.87Q22.99 6.13 23.16 5.54L23.16 5.54Q23.21 5.33 23.29 5.11Q23.37 4.89 23.48 4.70Q23.59 4.51 23.73 4.39Q23.87 4.27 24.07 4.27L24.07 4.27Q24.46 4.27 24.79 4.56L24.79 4.56Q24.95 4.72 25.05 4.94Q25.14 5.17 25.14 5.33L25.14 5.33Q25.14 5.61 25.09 5.95Q25.03 6.29 24.95 6.62Q24.86 6.94 24.76 7.22Q24.65 7.49 24.54 7.66L24.54 7.66Q24.47 7.78 24.35 7.91Q24.22 8.04 24.09 8.11Q23.95 8.19 23.83 8.20Q23.72 8.20 23.63 8.09L23.63 8.09Q23.60 8.20 23.62 8.39Q23.63 8.57 23.66 8.74Q23.69 8.92 23.73 9.07Q23.77 9.23 23.80 9.30L23.80 9.30Q23.91 9.53 24.09 9.65Q24.28 9.77 24.35 9.77L24.35 9.77Q24.49 9.77 24.62 9.56Q24.75 9.35 24.96 9.03L24.96 9.03Q25.20 8.65 25.49 7.97Q25.79 7.28 26.03 6.50L26.03 6.50Q26.07 6.34 26.10 6.20Q26.14 6.05 26.18 5.89L26.18 5.89Q26.25 5.49 26.50 5.49ZM24.30 5.19L24.30 5.19Q24.19 5.50 24.10 5.75Q24.01 5.99 23.93 6.22Q23.84 6.45 23.79 6.69Q23.73 6.93 23.72 7.22L23.72 7.22Q23.90 7.21 24.03 6.97Q24.16 6.73 24.21 6.54L24.21 6.54Q24.26 6.26 24.32 5.97Q24.39 5.68 24.39 5.38L24.39 5.38Q24.39 5.31 24.37 5.20Q24.35 5.10 24.30 5.19ZM27.16 5.49L27.16 5.49Q27.16 5.77 27.25 6.19Q27.34 6.61 27.52 7.20L27.52 7.20Q27.72 7.81 27.80 8.24Q27.89 8.67 27.89 8.93L27.89 8.93Q27.89 9.66 27.58 10.11L27.58 10.11Q27.23 10.63 26.73 10.63L26.73 10.63Q26.19 10.63 25.77 10.16L25.77 10.16Q25.48 9.86 25.48 9.55L25.48 9.55Q25.48 9.11 25.76 9.04L25.76 9.04Q25.77 9.04 25.78 9.04Q25.79 9.03 25.80 9.03L25.80 9.03Q25.87 9.03 25.98 9.09Q26.10 9.16 26.11 9.44L26.11 9.44Q26.31 9.84 26.47 9.84L26.47 9.84Q26.54 9.84 26.64 9.81Q26.73 9.77 26.81 9.62L26.81 9.62Q26.96 9.34 26.96 8.88L26.96 8.88Q26.96 8.33 26.68 7.36L26.68 7.36L26.68 7.35Q26.66 7.28 26.64 7.19Q26.61 7.10 26.59 7.01L26.59 7.01Q26.53 7.18 26.49 7.36Q26.45 7.53 26.39 7.70L26.39 7.70L26.39 7.71Q26.36 7.77 26.32 7.88Q26.28 7.99 26.21 8.10Q26.14 8.20 26.04 8.28Q25.94 8.36 25.80 8.36L25.80 8.36Q25.69 8.36 25.59 8.30L25.59 8.30Q25.44 8.23 25.49 8.08L25.49 8.08Q25.59 7.69 25.69 7.29Q25.79 6.90 25.89 6.52L25.89 6.52Q26.00 6.15 26.04 5.72Q26.08 5.29 26.08 4.82L26.08 4.82Q26.08 4.54 26.24 4.38Q26.39 4.21 26.67 4.21L26.67 4.21Q26.88 4.21 27.01 4.27Q27.15 4.33 27.21 4.40Q27.27 4.48 27.29 4.56Q27.31 4.63 27.31 4.69L27.31 4.69Q27.31 4.72 27.30 4.79Q27.29 4.86 27.23 5.07L27.23 5.07Q27.16 5.35 27.16 5.49ZM37.49 5.73L37.49 5.73Q37.83 5.88 38.22 6.10Q38.61 6.33 38.93 6.66Q39.26 6.99 39.47 7.41Q39.69 7.83 39.69 8.34L39.69 8.34Q39.69 8.78 39.53 9.29Q39.37 9.80 38.89 10.18L38.89 10.18Q38.63 10.37 38.18 10.58Q37.73 10.78 37.21 10.82L37.21 10.82Q36.69 10.86 36.13 10.78Q35.56 10.70 35.07 10.57L35.07 10.57Q34.05 10.35 33.15 9.83L33.15 9.83Q32.91 9.70 32.82 9.56L32.82 9.56Q32.69 9.39 32.69 9.18L32.69 9.18Q32.69 9.10 32.73 8.97Q32.77 8.85 32.97 8.76L32.97 8.76Q33.03 8.74 33.05 8.74L33.05 8.74Q33.12 8.74 33.17 8.78Q33.21 8.82 33.29 8.90L33.29 8.90Q33.36 8.96 33.42 9.03Q33.49 9.10 33.60 9.21L33.60 9.21Q33.63 9.23 33.81 9.29Q33.99 9.35 34.55 9.49L34.55 9.49Q35.21 9.66 35.83 9.80Q36.44 9.94 37.02 9.83L37.02 9.83Q37.58 9.70 37.89 9.49Q38.21 9.28 38.35 9.06Q38.49 8.85 38.51 8.66Q38.54 8.47 38.54 8.40L38.54 8.40Q38.54 8.15 38.38 7.89Q38.22 7.63 38.02 7.42Q37.81 7.21 37.63 7.07Q37.44 6.93 37.38 6.90L37.38 6.90Q37.20 6.80 36.76 6.67Q36.33 6.54 35.80 6.29Q35.28 6.05 34.72 5.64Q34.16 5.24 33.73 4.59L33.73 4.59Q33.56 4.35 33.48 4.02Q33.40 3.70 33.38 3.37Q33.36 3.04 33.39 2.74Q33.42 2.45 33.46 2.25L33.46 2.25Q33.60 1.65 33.91 1.02Q34.22 0.39 34.61-0.06L34.61-0.06Q35-0.50 35.47-0.76Q35.94-1.02 36.33-1.02L36.33-1.02Q36.86-1.02 37.35-0.83Q37.84-0.63 38.26-0.18L38.26-0.18Q38.65 0.22 38.83 0.68Q39.00 1.13 39.03 1.60L39.03 1.60Q39.05 1.88 39.05 1.94Q39.06 2.00 39.06 2.01Q39.06 2.02 39.05 2.06Q39.05 2.10 39.05 2.35L39.05 2.35Q39.05 2.90 38.95 3.15L38.95 3.15Q38.86 3.39 38.74 3.46Q38.61 3.53 38.53 3.53L38.53 3.53Q38.35 3.53 38.25 3.45Q38.15 3.37 38.09 3.30L38.09 3.30Q37.98 3.11 37.98 2.77L37.98 2.77Q37.98 2.48 37.98 2.39Q37.98 2.30 37.98 2.22Q37.97 2.14 37.95 2.02Q37.94 1.89 37.91 1.54L37.91 1.54Q37.88 1.25 37.77 1.03Q37.65 0.81 37.52 0.63L37.52 0.63Q37.42 0.50 37.24 0.39Q37.06 0.28 36.83 0.22Q36.61 0.17 36.38 0.18Q36.15 0.20 35.97 0.32L35.97 0.32Q35.73 0.48 35.54 0.64Q35.35 0.81 35.08 1.23L35.08 1.23Q34.93 1.47 34.83 1.76Q34.73 2.06 34.66 2.51L34.66 2.51Q34.64 2.63 34.62 2.83Q34.61 3.04 34.62 3.27Q34.64 3.50 34.69 3.75Q34.75 3.99 34.89 4.19L34.89 4.19Q35.21 4.65 35.48 4.87Q35.74 5.08 36.02 5.19Q36.30 5.31 36.65 5.40Q37.00 5.50 37.49 5.73ZM41.96 10.28L41.96 10.28Q41.87 10.51 41.81 10.54Q41.75 10.57 41.59 10.60L41.59 10.60Q41.44 10.63 41.29 10.54Q41.15 10.44 40.98 10.44L40.98 10.44Q40.85 10.49 40.74 10.32Q40.63 10.15 40.66 9.87L40.66 9.87Q40.70 9.67 40.74 9.56Q40.78 9.45 40.84 9.39Q40.89 9.34 40.95 9.33Q41.01 9.32 41.08 9.34L41.08 9.34Q41.13 9.35 41.17 9.36Q41.22 9.37 41.27 9.38L41.27 9.38Q41.45 9.42 41.62 9.41Q41.79 9.41 41.90 9.47Q42.01 9.53 42.03 9.71Q42.06 9.88 41.96 10.28ZM47.56 5.73L47.56 5.73Q47.89 5.88 48.29 6.10Q48.68 6.33 49 6.66Q49.32 6.99 49.54 7.41Q49.76 7.83 49.76 8.34L49.76 8.34Q49.76 8.78 49.59 9.29Q49.43 9.80 48.96 10.18L48.96 10.18Q48.69 10.37 48.24 10.58Q47.80 10.78 47.28 10.82L47.28 10.82Q46.76 10.86 46.19 10.78Q45.63 10.70 45.14 10.57L45.14 10.57Q44.11 10.35 43.22 9.83L43.22 9.83Q42.98 9.70 42.88 9.56L42.88 9.56Q42.76 9.39 42.76 9.18L42.76 9.18Q42.76 9.10 42.80 8.97Q42.84 8.85 43.04 8.76L43.04 8.76Q43.09 8.74 43.12 8.74L43.12 8.74Q43.19 8.74 43.23 8.78Q43.27 8.82 43.36 8.90L43.36 8.90Q43.43 8.96 43.49 9.03Q43.55 9.10 43.67 9.21L43.67 9.21Q43.69 9.23 43.88 9.29Q44.06 9.35 44.62 9.49L44.62 9.49Q45.28 9.66 45.89 9.80Q46.51 9.94 47.08 9.83L47.08 9.83Q47.64 9.70 47.96 9.49Q48.27 9.28 48.41 9.06Q48.55 8.85 48.58 8.66Q48.61 8.47 48.61 8.40L48.61 8.40Q48.61 8.15 48.45 7.89Q48.29 7.63 48.08 7.42Q47.88 7.21 47.69 7.07Q47.50 6.93 47.45 6.90L47.45 6.90Q47.26 6.80 46.83 6.67Q46.40 6.54 45.87 6.29Q45.35 6.05 44.79 5.64Q44.23 5.24 43.79 4.59L43.79 4.59Q43.62 4.35 43.55 4.02Q43.47 3.70 43.45 3.37Q43.43 3.04 43.46 2.74Q43.48 2.45 43.53 2.25L43.53 2.25Q43.67 1.65 43.97 1.02Q44.28 0.39 44.67-0.06L44.67-0.06Q45.07-0.50 45.54-0.76Q46.00-1.02 46.40-1.02L46.40-1.02Q46.93-1.02 47.42-0.83Q47.91-0.63 48.33-0.18L48.33-0.18Q48.72 0.22 48.90 0.68Q49.07 1.13 49.10 1.60L49.10 1.60Q49.11 1.88 49.12 1.94Q49.13 2.00 49.13 2.01Q49.13 2.02 49.12 2.06Q49.11 2.10 49.11 2.35L49.11 2.35Q49.11 2.90 49.01 3.15L49.01 3.15Q48.93 3.39 48.80 3.46Q48.68 3.53 48.59 3.53L48.59 3.53Q48.41 3.53 48.31 3.45Q48.22 3.37 48.16 3.30L48.16 3.30Q48.05 3.11 48.05 2.77L48.05 2.77Q48.05 2.48 48.05 2.39Q48.05 2.30 48.04 2.22Q48.03 2.14 48.02 2.02Q48.01 1.89 47.98 1.54L47.98 1.54Q47.95 1.25 47.83 1.03Q47.71 0.81 47.59 0.63L47.59 0.63Q47.49 0.50 47.31 0.39Q47.12 0.28 46.90 0.22Q46.68 0.17 46.45 0.18Q46.21 0.20 46.03 0.32L46.03 0.32Q45.79 0.48 45.61 0.64Q45.42 0.81 45.15 1.23L45.15 1.23Q45.00 1.47 44.90 1.76Q44.80 2.06 44.73 2.51L44.73 2.51Q44.70 2.63 44.69 2.83Q44.67 3.04 44.69 3.27Q44.70 3.50 44.76 3.75Q44.81 3.99 44.95 4.19L44.95 4.19Q45.28 4.65 45.54 4.87Q45.81 5.08 46.09 5.19Q46.37 5.31 46.72 5.40Q47.07 5.50 47.56 5.73ZM54.87 5.49L54.87 5.49Q54.94 5.50 54.93 5.56Q54.92 5.63 54.92 5.92L54.92 5.92Q54.92 6.20 54.81 6.78Q54.70 7.35 54.42 8.25L54.42 8.25Q54.26 8.74 54.08 9.11Q53.90 9.49 53.76 9.74L53.76 9.74Q53.65 9.94 53.49 10.14Q53.33 10.33 53.09 10.33L53.09 10.33Q52.64 10.33 52.39 9.97L52.39 9.97Q52.35 9.90 52.30 9.82Q52.25 9.74 52.19 9.63L52.19 9.63Q51.83 10.64 51.17 10.64L51.17 10.64Q50.85 10.64 50.58 10.40L50.58 10.40Q50.08 9.88 50.12 8.23L50.12 8.23Q50.13 7.97 50.19 7.61Q50.25 7.25 50.33 6.85L50.33 6.85Q50.39 6.62 50.46 6.36Q50.54 6.09 50.63 5.82Q50.72 5.56 50.81 5.33Q50.89 5.11 50.96 4.97L50.96 4.97Q51.06 4.79 51.20 4.60Q51.35 4.41 51.56 4.41L51.56 4.41Q51.72 4.41 51.90 4.49Q52.08 4.56 52.24 4.70Q52.40 4.83 52.52 5.01Q52.64 5.19 52.67 5.39L52.67 5.39Q52.74 5.84 52.68 6.02Q52.63 6.20 52.57 6.29L52.57 6.29Q52.54 6.31 52.49 6.36Q52.44 6.40 52.38 6.42Q52.32 6.44 52.27 6.42Q52.22 6.40 52.21 6.30L52.21 6.30Q52.16 5.96 52.07 5.72Q51.97 5.47 51.79 5.45L51.79 5.45Q51.74 5.52 51.65 5.78Q51.55 6.05 51.37 6.69L51.37 6.69Q51.18 7.34 51.07 7.90L51.07 7.90Q50.99 8.57 50.99 9.28L50.99 9.28Q50.99 9.51 51.09 9.70L51.09 9.70Q51.11 9.76 51.18 9.79Q51.25 9.83 51.28 9.83L51.28 9.83Q51.34 9.83 51.46 9.59Q51.59 9.35 51.74 8.90L51.74 8.90Q51.90 8.50 51.94 8.15Q51.98 7.80 52.05 7.43L52.05 7.43Q52.08 7.32 52.09 7.22Q52.11 7.13 52.12 7.01L52.12 7.01Q52.14 6.90 52.12 6.86Q52.09 6.82 52.14 6.76L52.14 6.76Q52.18 6.71 52.23 6.71Q52.28 6.71 52.30 6.71L52.30 6.71Q52.33 6.71 52.37 6.71Q52.42 6.72 52.44 6.72L52.44 6.72Q52.50 6.72 52.54 6.75Q52.58 6.79 52.64 6.80L52.64 6.80Q52.70 6.82 52.73 6.84Q52.77 6.86 52.81 6.89L52.81 6.89Q52.86 6.90 52.92 6.93L52.92 6.93Q52.96 6.96 53.00 7Q53.03 7.04 53.00 7.10L53.00 7.10Q52.96 7.22 52.93 7.36Q52.89 7.50 52.86 7.64L52.86 7.64Q52.84 7.84 52.82 8.06Q52.79 8.29 52.77 8.50L52.77 8.50Q52.74 8.88 52.85 9.25L52.85 9.25Q52.91 9.41 52.94 9.46Q52.98 9.51 52.99 9.52L52.99 9.52Q53.00 9.52 53.03 9.48Q53.06 9.45 53.12 9.36Q53.17 9.27 53.26 9.09Q53.35 8.92 53.49 8.64L53.49 8.64Q53.77 8.06 53.91 7.59Q54.04 7.13 54.12 6.87L54.12 6.87L54.47 5.89Q54.50 5.78 54.58 5.62Q54.66 5.46 54.87 5.49ZM56.08 9.66L56.08 9.66Q55.72 10.44 55.19 10.44L55.19 10.44Q55.01 10.44 54.79 10.35Q54.57 10.25 54.38 9.93L54.38 9.93Q54.25 9.69 54.18 9.40Q54.11 9.11 54.11 8.75L54.11 8.75Q54.11 8.44 54.24 7.07L54.24 7.07Q54.31 6.40 54.33 5.99Q54.36 5.57 54.36 5.43L54.36 5.43Q54.36 5.29 54.36 5.22Q54.36 5.15 54.40 5.12Q54.45 5.10 54.55 5.11Q54.66 5.12 54.87 5.17L54.87 5.17Q55.26 5.24 55.36 5.35Q55.47 5.46 55.47 5.54L55.47 5.54Q55.47 5.59 55.45 5.67Q55.43 5.75 55.40 5.85Q55.37 5.95 55.35 6.03Q55.33 6.12 55.33 6.15L55.33 6.15Q55.30 6.26 55.25 6.55Q55.20 6.85 55.13 7.17L55.13 7.17Q55.05 7.62 55.01 7.99Q54.98 8.36 54.98 8.78L54.98 8.78Q54.98 8.85 54.98 8.97Q54.99 9.10 55.01 9.23Q55.03 9.37 55.08 9.46Q55.13 9.56 55.22 9.58L55.22 9.58Q55.24 9.56 55.33 9.44Q55.41 9.32 55.55 8.96L55.55 8.96Q55.58 8.88 55.75 8.50Q55.92 8.12 56.13 7.45L56.13 7.45Q56.20 7.22 56.31 6.90Q56.42 6.58 56.55 6.13L56.55 6.13Q56.56 6.08 56.59 5.99Q56.62 5.89 56.66 5.81Q56.70 5.73 56.77 5.67Q56.84 5.61 56.95 5.61L56.95 5.61Q56.99 5.61 57.06 5.68Q57.12 5.74 57.12 6.03L57.12 6.03Q57.12 6.10 57.11 6.22Q57.09 6.34 57.04 6.59Q56.98 6.83 56.88 7.21Q56.77 7.59 56.59 8.18L56.59 8.18Q56.39 8.81 56.27 9.16Q56.15 9.52 56.08 9.66ZM55.22 4.55L55.22 4.55Q54.85 4.55 54.64 4.27L54.64 4.27Q54.42 4.00 54.42 3.72L54.42 3.72Q54.42 3.49 54.64 3.26L54.64 3.26Q54.89 3.04 55.09 3.04L55.09 3.04Q55.43 3.04 55.61 3.23Q55.79 3.43 55.79 3.79L55.79 3.79Q55.79 4.05 55.73 4.20Q55.66 4.35 55.57 4.43Q55.47 4.51 55.37 4.53Q55.27 4.55 55.22 4.55ZM61.19 5.60L61.19 5.60Q61.25 5.60 61.38 5.66Q61.52 5.73 61.52 6.02L61.52 6.02Q61.52 6.48 60.97 8.12L60.97 8.12Q60.62 9.20 60.31 9.80L60.31 9.80Q59.98 10.44 59.63 10.44L59.63 10.44Q58.88 10.44 58.67 9.21L58.67 9.21Q58.63 9.02 58.60 8.68Q58.56 8.34 58.53 7.85L58.53 7.85Q58.45 8.20 58.34 8.63Q58.23 9.06 58.09 9.58L58.09 9.58Q58.06 9.65 58.02 9.78Q57.97 9.91 57.90 10.04Q57.83 10.18 57.71 10.28Q57.60 10.37 57.43 10.37L57.43 10.37Q57.34 10.37 57.22 10.35Q57.11 10.32 56.99 10.23Q56.88 10.15 56.79 10.00Q56.70 9.84 56.66 9.58L56.66 9.58L56.66 9.56Q56.64 9.28 56.63 8.99Q56.62 8.71 56.60 8.43L56.60 8.43Q56.56 7.81 56.60 7.21L56.60 7.21Q56.62 6.99 56.62 6.87Q56.63 6.76 56.64 6.71L56.64 6.71L56.53 6.47Q56.50 6.41 56.50 6.37L56.50 6.37Q56.53 6.06 56.55 5.94Q56.57 5.82 56.60 5.77L56.60 5.77Q56.73 5.40 57.16 5.40L57.16 5.40Q57.40 5.40 57.53 5.53Q57.65 5.66 57.65 5.87L57.65 5.87Q57.65 5.89 57.64 5.96Q57.62 6.02 57.55 6.27L57.55 6.27Q57.51 6.41 57.48 6.52Q57.46 6.64 57.46 6.75L57.46 6.75Q57.46 6.90 57.46 7.13Q57.46 7.35 57.44 7.63L57.44 7.63Q57.44 7.91 57.43 8.09Q57.43 8.27 57.43 8.36L57.43 8.36Q57.43 8.83 57.47 9.02L57.47 9.02L57.47 9.00Q57.58 8.60 57.65 8.32Q57.72 8.04 57.79 7.85L57.79 7.85Q58.21 6.55 58.30 5.57L58.30 5.57Q58.34 4.83 58.59 4.68L58.59 4.68Q58.65 4.63 58.72 4.63L58.72 4.63Q59.30 4.68 59.49 4.89Q59.67 5.11 59.67 5.32L59.67 5.32L59.67 5.36Q59.65 5.39 59.63 5.59Q59.60 5.78 59.50 6.36L59.50 6.36Q59.43 6.86 59.39 7.29Q59.35 7.71 59.35 8.08L59.35 8.08Q59.35 8.54 59.37 8.82Q59.40 9.10 59.44 9.25Q59.49 9.39 59.52 9.44Q59.56 9.49 59.57 9.49L59.57 9.49Q59.58 9.48 59.63 9.43Q59.68 9.38 59.77 9.23Q59.85 9.07 59.98 8.79Q60.10 8.51 60.26 8.05L60.26 8.05Q60.41 7.56 60.54 7.10Q60.66 6.64 60.76 6.22L60.76 6.22Q60.82 5.98 60.91 5.79Q61.00 5.60 61.19 5.60ZM63.91 2.66L63.91 2.66Q64.11 2.69 64.11 2.87L64.11 2.87L64.11 2.97Q64.11 3.04 64.06 3.09L64.06 3.09Q64.02 3.15 63.88 3.21Q63.74 3.26 63.25 3.35L63.25 3.35Q62.93 3.42 62.72 3.43Q62.51 3.44 62.36 3.44L62.36 3.44L61.92 3.47Q61.89 3.67 61.86 4.09Q61.82 4.52 61.75 5.15L61.75 5.15Q61.70 5.68 61.67 6.02Q61.64 6.36 61.62 6.55Q61.60 6.75 61.59 6.83Q61.59 6.92 61.59 6.94L61.59 6.94Q61.59 7.62 61.59 8.03Q61.60 8.44 61.61 8.60L61.61 8.60Q61.66 9.04 61.73 9.18Q61.81 9.32 61.84 9.32L61.84 9.32Q61.89 9.30 61.95 9.23L61.95 9.23Q62.01 9.16 62.08 9.03Q62.16 8.90 62.27 8.67L62.27 8.67Q62.43 8.29 62.60 7.71Q62.78 7.13 62.96 6.36L62.96 6.36Q63.00 6.17 63.04 6.05Q63.08 5.92 63.11 5.82L63.11 5.82Q63.14 5.75 63.20 5.64Q63.27 5.53 63.41 5.53L63.41 5.53Q63.53 5.53 63.64 5.62Q63.76 5.71 63.76 5.95L63.76 5.95Q63.76 6.22 63.63 6.75Q63.50 7.29 63.22 8.13L63.22 8.13Q62.86 9.21 62.52 9.72Q62.17 10.23 61.80 10.23L61.80 10.23Q61.26 10.23 60.94 9.42L60.94 9.42Q60.66 8.69 60.66 7.62L60.66 7.62Q60.66 7.27 60.75 6.27Q60.84 5.28 61.04 3.50L61.04 3.50Q60.91 3.53 60.80 3.49Q60.69 3.46 60.65 3.43L60.65 3.43Q60.62 3.42 60.58 3.37Q60.54 3.33 60.42 3.29L60.42 3.29Q60.23 3.22 60.18 3.12Q60.13 3.01 60.13 2.94L60.13 2.94Q60.13 2.90 60.18 2.79Q60.23 2.69 60.51 2.63L60.51 2.63Q60.59 2.62 60.65 2.61Q60.70 2.60 60.76 2.60Q60.82 2.59 60.89 2.58Q60.97 2.58 61.10 2.56L61.10 2.56Q61.11 2.41 61.12 2.18Q61.14 1.96 61.15 1.67L61.15 1.67L61.08 1.43Q61.08 1.34 61.10 1.30L61.10 1.30Q61.21 1.08 61.45 1.08L61.45 1.08Q61.70 1.08 62.16 1.37L62.16 1.37Q62.24 1.44 62.24 1.54L62.24 1.54L62.24 1.86L62.24 1.90Q62.22 2.06 62.18 2.22Q62.15 2.38 62.10 2.58L62.10 2.58Q62.20 2.58 62.22 2.58Q62.24 2.58 62.26 2.58Q62.27 2.59 62.33 2.60Q62.38 2.60 62.58 2.60L62.58 2.60Q62.76 2.60 62.87 2.61Q62.97 2.62 63.09 2.63Q63.21 2.63 63.39 2.64Q63.57 2.65 63.91 2.66ZM64.85 9.66L64.85 9.66Q64.48 10.44 63.95 10.44L63.95 10.44Q63.77 10.44 63.55 10.35Q63.34 10.25 63.14 9.93L63.14 9.93Q63.01 9.69 62.94 9.40Q62.87 9.11 62.87 8.75L62.87 8.75Q62.87 8.44 63 7.07L63 7.07Q63.07 6.40 63.10 5.99Q63.13 5.57 63.13 5.43L63.13 5.43Q63.13 5.29 63.13 5.22Q63.13 5.15 63.17 5.12Q63.21 5.10 63.31 5.11Q63.42 5.12 63.63 5.17L63.63 5.17Q64.02 5.24 64.13 5.35Q64.23 5.46 64.23 5.54L64.23 5.54Q64.23 5.59 64.21 5.67Q64.19 5.75 64.16 5.85Q64.13 5.95 64.11 6.03Q64.09 6.12 64.09 6.15L64.09 6.15Q64.06 6.26 64.02 6.55Q63.97 6.85 63.90 7.17L63.90 7.17Q63.81 7.62 63.78 7.99Q63.74 8.36 63.74 8.78L63.74 8.78Q63.74 8.85 63.75 8.97Q63.76 9.10 63.78 9.23Q63.80 9.37 63.85 9.46Q63.90 9.56 63.98 9.58L63.98 9.58Q64.01 9.56 64.09 9.44Q64.18 9.32 64.32 8.96L64.32 8.96Q64.34 8.88 64.51 8.50Q64.68 8.12 64.89 7.45L64.89 7.45Q64.96 7.22 65.07 6.90Q65.18 6.58 65.31 6.13L65.31 6.13Q65.32 6.08 65.35 5.99Q65.38 5.89 65.42 5.81Q65.46 5.73 65.53 5.67Q65.60 5.61 65.72 5.61L65.72 5.61Q65.76 5.61 65.82 5.68Q65.88 5.74 65.88 6.03L65.88 6.03Q65.88 6.10 65.87 6.22Q65.86 6.34 65.80 6.59Q65.74 6.83 65.64 7.21Q65.53 7.59 65.35 8.18L65.35 8.18Q65.16 8.81 65.04 9.16Q64.92 9.52 64.85 9.66ZM63.98 4.55L63.98 4.55Q63.62 4.55 63.41 4.27L63.41 4.27Q63.18 4.00 63.18 3.72L63.18 3.72Q63.18 3.49 63.41 3.26L63.41 3.26Q63.66 3.04 63.85 3.04L63.85 3.04Q64.19 3.04 64.37 3.23Q64.55 3.43 64.55 3.79L64.55 3.79Q64.55 4.05 64.49 4.20Q64.43 4.35 64.33 4.43Q64.23 4.51 64.13 4.53Q64.04 4.55 63.98 4.55ZM68.80 5.45L68.80 5.45Q68.81 5.45 68.87 5.45Q68.92 5.46 68.98 5.50Q69.05 5.54 69.09 5.63Q69.13 5.71 69.13 5.87L69.13 5.87Q69.13 6.19 68.98 6.78Q68.82 7.36 68.52 8.26L68.52 8.26Q68.14 9.41 67.75 9.95Q67.37 10.49 66.95 10.49L66.95 10.49Q66.29 10.49 65.79 9.74L65.79 9.74Q65.23 8.89 65.23 7.39L65.23 7.39Q65.23 6.72 65.30 5.84Q65.38 4.97 65.53 3.88L65.53 3.88Q65.86 1.78 66.16 0.84L66.16 0.84Q66.21 0.29 66.35 0.03L66.35 0.03Q66.46-0.21 66.61-0.28Q66.77-0.35 66.88-0.35L66.88-0.35Q67.07-0.35 67.28-0.28Q67.49-0.21 67.67-0.02Q67.84 0.17 67.96 0.50Q68.07 0.83 68.07 1.36L68.07 1.36Q68.07 2.67 67.56 4.35L67.56 4.35Q67.06 6.06 66.39 7.08L66.39 7.08Q66.36 7.13 66.33 7.17Q66.30 7.22 66.23 7.29L66.23 7.29Q66.14 7.42 66.11 7.49L66.11 7.49Q66.08 7.55 66.08 7.62L66.08 7.62Q66.08 8.62 66.53 9.20L66.53 9.20Q66.71 9.44 66.81 9.50Q66.92 9.56 66.98 9.56L66.98 9.56Q67.03 9.55 67.09 9.48L67.09 9.48Q67.14 9.41 67.23 9.29Q67.31 9.17 67.42 8.93L67.42 8.93Q67.77 8.19 68.19 6.76L68.19 6.76Q68.25 6.54 68.30 6.33Q68.35 6.12 68.40 5.91L68.40 5.91Q68.43 5.80 68.52 5.62Q68.60 5.45 68.80 5.45ZM67.16 1.06L67.16 1.06Q66.74 2.49 66.48 3.65Q66.22 4.80 66.14 5.71L66.14 5.71Q66.29 5.36 66.44 4.95Q66.60 4.54 66.75 4.05L66.75 4.05Q67.20 2.51 67.20 1.78L67.20 1.78Q67.20 1.32 67.16 1.06Z"></path></g><defs data-v-fde0c5aa=""><!----></defs><g data-v-fde0c5aa="" id="ac791755-a36f-4d6e-bdf9-852d5759086e" stroke="none" fill="#FFD009" transform="matrix(1.1883906292820579,0,0,1.1883906292820579,94.91809444611039,63.695185938521746)"><path d="M40.6 35.3l-4.5-9.8C26.2 45.3 16.4 65 6.6 84.8c2.9 0 5.5.1 8.1 0 .5 0 1.3-.5 1.6-1 2-3.9 3.9-7.8 5.9-11.7C28.2 60 34.3 48 40.3 35.9c0-.3.2-.4.3-.6zM59.1 76h-1.6c-9.3 0-18.6-.1-27.9-.1-.7 0-1.8.5-2.1 1.1-1.3 2.5-2.3 5-3.5 8h39.2l-4.1-9z"></path><g><path d="M36.6 24.1l9.6-18.9 39.9 79.4-21.9-.2z"></path></g></g><!----></svg>