<svg data-v-423bf9ae="" xmlns="http://www.w3.org/2000/svg" viewBox="0 0 376 90" class="iconLeft"><!----><!----><!----><g data-v-423bf9ae="" id="3b1d2767-25df-4646-b908-ae8e2c5e884b" fill="#FFFFFF" transform="matrix(6.1037640351658435,0,0,6.1037640351658435,108.47405952162251,3.4028491815960678)"><path d="M3.82 1.93L3.82 1.93Q5.87 1.93 6.41 3.21L6.41 3.21Q6.56 3.53 6.56 3.63L6.56 3.63L5.69 3.63L5.69 3.89L6.62 3.89L6.62 3.88Q6.62 3.81 6.56 3.63L6.56 3.63L8.13 3.63L8.13 3.89L6.64 3.89L6.64 3.91Q6.75 4.46 6.80 5.09L6.80 5.09Q6.80 5.13 5.00 5.22L5.00 5.22L5.00 5.21Q5.00 3.58 3.88 3.58L3.88 3.58L3.69 3.58Q2.85 3.58 2.67 4.29L2.67 4.29Q2.52 4.89 2.52 5.87L2.52 5.87L2.52 7.20L2.50 7.40L1.88 7.40L1.88 7.71L2.50 7.71L2.50 10.08L5.14 10.08L5.14 7.62L6.65 7.62L6.65 10.08L5.81 10.08L5.81 11.60L4.05 11.60L4.05 11.73L2.69 11.73L2.69 11.60L1.30 11.60L1.30 10.84L2.22 10.84L2.22 10.51L0.84 10.51L0.84 9.39L0.25 9.39L0.25 8.01L0.56 8.01Q0.54 7.15 0.54 6.66L0.54 6.66Q0.54 4.42 0.76 3.84L0.76 3.84Q0.96 3.17 1.42 2.69L1.42 2.69Q2.23 1.93 3.82 1.93ZM2.63 9.59L2.63 9.59L2.71 9.59L2.71 9.93L2.91 9.93L2.91 10.04L2.63 10.04Q2.60 10.04 2.60 10.00L2.60 10.00L2.60 9.63Q2.60 9.59 2.63 9.59ZM4.69 9.60L4.69 9.59L4.79 9.59Q4.87 9.66 4.87 9.72L4.87 9.72Q4.89 9.72 4.99 9.59L4.99 9.59L5.07 9.59L5.07 9.63Q4.96 9.78 4.96 9.84L4.96 9.84Q4.98 9.84 5.09 10.01L5.09 10.01L5.09 10.04L4.99 10.04L4.87 9.91Q4.81 10.02 4.78 10.04L4.78 10.04L4.68 10.04Q4.71 9.97 4.83 9.80L4.83 9.80L4.69 9.60ZM6.04 10.19L6.04 10.19Q6.21 10.23 6.21 10.28L6.21 10.28L6.21 10.35L6.14 10.35L6.08 10.28L6.01 10.28Q5.97 10.29 5.97 10.32L5.97 10.32L5.97 10.35Q6.23 10.40 6.23 10.46L6.23 10.46L6.23 10.51Q6.23 10.64 6.08 10.64L6.08 10.64L6.01 10.64Q5.92 10.64 5.87 10.55L5.87 10.55L5.87 10.48L5.96 10.48Q5.96 10.56 6.06 10.56L6.06 10.56L6.08 10.56Q6.10 10.56 6.13 10.51L6.13 10.51Q6.13 10.49 5.89 10.40L5.89 10.40L5.88 10.36L5.88 10.28Q5.88 10.23 6.04 10.19ZM10.57 1.96L10.57 1.96Q12.20 1.96 12.75 3.01L12.75 3.01Q13.13 3.80 13.13 4.56L13.13 4.56L13.12 4.56Q12.00 4.66 11.59 4.66L11.59 4.66Q11.59 4.12 11.26 3.75L11.26 3.75Q10.94 3.57 10.68 3.57L10.68 3.57L10.40 3.57Q9.71 3.57 9.56 4.11L9.56 4.11Q9.52 4.27 9.52 4.35L9.52 4.35L9.52 4.50Q9.52 5.26 10.33 5.61L10.33 5.61Q10.40 5.67 11.45 6.12L11.45 6.12Q12.01 6.38 12.49 6.76L12.49 6.76L12.49 6.77L10.77 6.77L10.77 6.97L13.04 6.97L13.04 7.24L13.32 7.24L13.32 10.21L12.76 10.21L12.76 11.73L8.42 11.73L8.42 10.21L7.39 10.21L7.39 9.18L7.97 9.18L7.97 8.83L7.39 8.83L7.39 8.59L9.38 8.59L9.38 10.21L11.42 10.21L11.42 7.77L9.89 7.77L9.89 6.97L8.00 6.97L8.00 6.77L8.91 6.77L8.91 6.76Q7.71 5.96 7.71 4.50L7.71 4.50L7.71 4.37Q7.71 3.14 8.46 2.51L8.46 2.51Q9.15 1.96 10.57 1.96ZM13.04 6.97L13.04 6.77L13.73 6.77L13.73 6.97L13.04 6.97ZM6.73 9.18L6.73 8.83L7.39 8.83L7.39 9.18L6.73 9.18ZM14.31 1.96L14.31 1.96L16.23 1.96Q16.23 3.37 16.72 4.35L16.72 4.35Q17.25 5.64 17.45 6.39L17.45 6.39L17.45 6.41L17.46 6.41Q17.71 5.50 18.48 3.62L18.48 3.62Q18.68 2.72 18.68 1.96L18.68 1.96L20.48 1.96Q20.32 3.43 20.07 4.13L20.07 4.13L18.98 6.59L18.33 6.59L18.33 8.28L17.33 8.28L17.33 8.61L18.33 8.61L18.33 11.73L16.45 11.73Q16.43 11.73 16.43 11.70L16.43 11.70L16.43 10.17L16.13 10.17L16.13 7.46L16.69 7.46L16.69 7.21L16.08 7.21Q16.00 7.12 14.94 4.67L14.94 4.67Q14.50 3.68 14.50 3.49L14.50 3.49L15.31 3.49L15.31 3.14L14.44 3.14Q14.31 2.06 14.31 1.96ZM13.14 3.49L13.14 3.14L14.44 3.14L14.49 3.49L13.14 3.49ZM18.33 8.61L18.33 8.28L19.13 8.28L19.13 8.61L18.33 8.61ZM20.97 9.38L20.97 1.98L23.15 1.98Q23.51 3.29 24.62 7.23L24.62 7.23L25.48 7.23Q25.52 7.23 25.76 6.30L25.76 6.30Q26.30 4.44 26.98 1.98L26.98 1.98L28.99 1.98L28.99 8.31L29.10 8.31L29.10 9.46L28.49 9.46L28.49 9.67L29.10 9.67L29.10 11.73L27.39 11.73L27.39 10.97L27.60 10.97L27.60 8.63L27.24 8.63L27.24 7.46L27.03 7.46L27.02 7.53L26.83 7.53L26.83 9.19L26.24 9.19L26.24 9.97L25.73 9.97L25.73 11.29L24.53 11.29L24.53 10.45L23.79 10.45L23.79 9.30L23.34 9.30L23.34 8.09L23.09 8.09Q23.08 8.00 22.93 7.46L22.93 7.46L24.66 7.46L24.61 7.23L22.88 7.23L22.93 7.46L22.70 7.46L22.70 8.98L22.81 8.98L22.81 10.64L22.39 10.64L22.39 10.94L22.81 10.94L22.81 11.38L21.27 11.38L21.27 9.38L20.97 9.38ZM22.70 6.54L22.68 6.54L22.68 6.66Q22.68 6.81 22.70 7.23L22.70 7.23L22.87 7.23Q22.70 6.58 22.70 6.54L22.70 6.54ZM27.26 6.56L27.24 6.56L27.10 7.23L27.24 7.23Q27.26 6.82 27.26 6.62L27.26 6.62L27.26 6.56ZM22.68 7.23L22.14 7.23L22.14 7.46L22.68 7.46L22.68 7.23ZM27.08 7.23L25.51 7.23L25.46 7.46L27.02 7.46Q27.08 7.29 27.08 7.23L27.08 7.23ZM28.44 7.23L27.26 7.23L27.26 7.46L28.44 7.46L28.44 7.23ZM25.43 7.46L24.69 7.46Q24.80 7.99 24.84 7.99L24.84 7.99L25.04 7.99L25.04 8.87L25.35 8.87L25.35 7.51L25.43 7.51L25.43 7.46ZM29.10 9.67L29.10 9.46L30.09 9.46L30.09 9.67L29.10 9.67ZM20.82 11.61L20.82 11.46L22.57 11.46L22.57 11.61L20.82 11.61ZM29.89 7.25L29.89 1.90L32.42 1.90Q34.64 1.90 35.27 3.05L35.27 3.05Q35.63 3.77 35.63 4.89L35.63 4.89Q35.61 5.10 35.61 5.30L35.61 5.30L37.02 5.30L37.02 5.78L35.56 5.78L35.56 5.76Q35.59 5.33 35.59 5.30L35.59 5.30L34.77 5.30L34.77 5.78L35.56 5.78L35.56 7.44L33.94 7.44L33.94 8.02L33.93 8.02Q32.05 8.03 31.80 8.03L31.80 8.03L31.80 8.90L31.46 8.90L31.46 10.44L31.65 10.44L31.65 11.73L30.11 11.73L30.11 11.12L29.90 11.12L29.90 10.62Q29.90 9.74 29.89 7.76L29.89 7.76L30.82 7.76L30.82 7.25L29.89 7.25ZM32.63 3.57L31.80 3.57L31.80 6.36L32.39 6.36L32.39 5.96L33.55 5.96Q33.78 5.75 33.78 4.76L33.78 4.76Q33.78 3.83 33.35 3.68L33.35 3.68Q33.20 3.57 32.63 3.57L32.63 3.57ZM38.19 7.57L39.87 1.96L41.52 1.96Q41.56 2.10 43.12 7.29L43.12 7.29L43.42 7.29L43.42 10.51L42.75 10.51L42.75 10.76L43.42 10.76L43.42 11.45L41.60 11.45L41.60 9.47L39.38 9.47L39.38 10.32L38.47 10.32L38.47 11.73L36.83 11.73L36.83 11.63L36.96 11.63L36.96 10.32L37.63 10.32L37.63 7.57L38.19 7.57ZM40.68 4.71L40.65 4.71L40.65 4.72Q40.43 5.89 39.83 8.40L39.83 8.40L41.36 8.40L41.36 7.29L41.23 7.29Q40.68 4.92 40.68 4.71L40.68 4.71ZM36.35 7.57L36.35 7.28L37.63 7.28L37.63 7.57L36.35 7.57ZM41.60 11.73L41.60 11.57L43.80 11.57L43.80 11.73L41.60 11.73Z"></path></g><!----><g data-v-423bf9ae="" id="42a71785-e161-4549-bea8-85bef2b15a19" transform="matrix(2.8125,0,0,2.8125,0,0)" stroke="none" fill="#FF772D"><path d="M29.625 1l-3.099 3.172H4.054v23.657h22.472L29.625 31H1V1h28.625M32 0H0v32h32l-5.054-5.172H5.054V5.172h21.893L32 0z"></path><path d="M21.038 10.962v10.076H10.962V10.962h10.076m1-1H9.962v12.076h12.076V9.962z"></path></g><!----></svg>